<svg version="1.1" id="Layer_1" xmlns="http://www.w3.org/2000/svg" xmlns:xlink="http://www.w3.org/1999/xlink" x="100" y="200"
	 width="100%" viewBox="0 0 1080 1080" enable-background="new 0 0 1080 1080" xml:space="preserve">
<path fill="#00000" opacity="1.000000" stroke="none" 
	d="
M726.000000,1081.000000 
	C484.027863,1081.000000 242.555740,1081.000000 1.041802,1081.000000 
	C1.041802,721.069397 1.041802,361.138824 1.041802,1.104115 
	C360.889008,1.104115 720.778076,1.104115 1080.833496,1.104115 
	C1080.833496,360.999939 1080.833496,720.999939 1080.833496,1081.000000 
	C962.804993,1081.000000 844.652527,1081.000000 726.000000,1081.000000 
M537.797119,747.197815 
	C537.810913,746.668823 537.940308,746.110779 537.815735,745.616638 
	C537.510071,744.404114 537.087341,743.221191 536.711731,742.026306 
	C536.046692,742.904663 535.200989,743.699158 534.747620,744.675781 
	C532.707947,749.069458 530.779663,753.514771 528.287537,759.118958 
	C527.336609,754.370850 527.232117,750.651794 525.766541,747.582703 
	C524.670715,745.287842 522.067261,742.773315 519.698914,742.218506 
	C514.538025,741.009521 513.576477,742.280884 515.043823,747.477844 
	C517.238342,755.250549 512.452454,760.187378 508.448242,765.569092 
	C507.999878,760.514893 507.717316,755.551819 508.096558,750.639771 
	C508.361145,747.213257 506.610352,745.182617 503.974152,745.251282 
	C501.963409,745.303528 498.636536,747.286804 498.289490,748.919922 
	C497.246429,753.828491 496.479950,759.147156 497.351654,763.991638 
	C497.964844,767.399414 498.628723,772.223145 505.031677,772.235352 
	C512.162720,772.248840 513.008728,769.685181 517.595398,762.367798 
	C518.355347,763.785767 519.703308,765.178467 519.765625,766.626465 
	C519.958130,771.100281 522.638794,771.967529 526.308411,772.015625 
	C530.484741,772.070312 531.053711,768.953857 532.032471,765.962097 
	C534.046631,759.805237 536.237732,753.706238 538.007385,748.410217 
	C537.498535,750.592102 537.014343,752.780029 536.475952,754.954590 
	C535.048706,760.719116 536.028137,766.141724 540.056091,770.401001 
	C543.414978,773.952942 548.281433,774.069458 552.166687,771.719971 
	C555.225403,769.870239 557.295288,766.385193 559.888062,763.534607 
	C560.229675,765.444763 560.811218,767.570068 560.952820,769.724243 
	C561.243958,774.153809 564.989014,773.842896 567.432495,773.728271 
	C569.017761,773.653870 571.370483,771.202698 571.814575,769.425476 
	C572.754089,765.665588 572.219482,761.539246 573.144958,757.773438 
	C573.888977,754.746155 575.646301,751.848083 577.514099,749.303894 
	C577.960815,748.695435 580.631836,749.886841 582.288086,749.929199 
	C583.128784,749.950806 583.987793,749.257751 584.285706,749.128174 
	C584.856934,743.046753 580.604431,743.236755 577.533325,744.232300 
	C574.620361,745.176575 572.307007,747.970398 569.709473,749.966614 
	C568.799316,748.644897 568.180420,746.797913 566.937744,746.153076 
	C564.812744,745.050415 562.312317,744.379028 559.934265,744.265442 
	C559.353027,744.237732 557.696899,747.457581 558.135376,748.529602 
	C560.593445,754.539062 556.089111,758.193604 553.834351,762.566772 
	C553.149414,763.895325 551.938354,765.126526 550.666077,765.914246 
	C549.880554,766.400513 548.524353,765.964966 547.424377,765.943298 
	C547.742004,764.952454 548.013489,763.944031 548.385193,762.973877 
	C549.906738,759.002502 552.183167,755.156067 552.824402,751.051514 
	C553.714417,745.354858 549.871216,742.556763 544.363464,744.347961 
	C542.189087,745.055176 540.275818,746.565186 537.797119,747.197815 
M636.002502,756.993835 
	C636.002502,756.993835 636.075073,757.060791 636.019470,756.182922 
	C634.262573,755.130554 632.505737,754.078186 630.780640,753.044861 
	C629.580139,745.734497 628.552979,737.857910 626.877686,730.121704 
	C626.255676,727.249390 624.751892,723.576843 622.500305,722.305237 
	C619.821899,720.792542 615.779114,720.791992 612.562805,721.393799 
	C609.449280,721.976318 609.484131,725.364685 608.718811,728.253601 
	C604.545593,744.006836 599.879761,759.631165 595.257935,775.262756 
	C594.444458,778.014160 595.584167,779.521851 597.896240,779.841370 
	C600.664185,780.223816 603.758301,780.553528 606.290771,779.683167 
	C608.824646,778.812256 612.056458,778.226074 612.238586,773.730652 
	C612.391846,769.947815 613.965942,765.803101 616.130554,762.657959 
	C617.770081,760.275818 621.330627,759.215820 624.979248,756.992981 
	C625.770996,761.853821 626.593628,765.605347 626.950439,769.400696 
	C627.480225,775.035522 629.712036,777.814331 635.359924,778.384766 
	C634.908447,784.556274 634.456543,790.759644 634.000000,796.962708 
	C633.721008,800.753723 635.494324,801.633484 638.896912,800.602783 
	C645.785583,798.516052 647.979797,795.611450 647.983276,788.273560 
	C647.985901,782.863403 647.983765,777.453186 647.983765,771.714111 
	C656.502625,773.284180 662.406494,769.142944 668.717285,765.671875 
	C668.833984,765.800659 668.950745,765.929443 668.996338,766.985840 
	C668.664429,776.539307 668.216064,786.091370 668.105713,795.647400 
	C668.085205,797.415161 669.086853,800.453796 670.202637,800.758301 
	C675.119629,802.099670 680.942871,796.957153 680.987061,791.713318 
	C681.041260,785.271179 681.000000,778.828247 681.000000,772.429993 
	C694.022949,771.207397 694.063049,770.683838 700.531494,765.763123 
	C706.464294,761.249939 710.604431,752.165466 708.803894,747.569214 
	C705.610840,751.790771 702.590332,755.784363 699.272217,759.343750 
	C699.159058,759.209656 699.045898,759.075623 699.017761,758.049255 
	C699.011353,756.062866 699.148499,754.063843 698.973877,752.092346 
	C698.160767,742.912537 691.218506,739.627075 683.626953,744.815735 
	C681.431580,746.316040 679.339417,747.967346 677.770447,749.127625 
	C677.700989,749.066772 676.152161,746.971375 675.431030,747.225464 
	C673.743408,747.819946 672.158875,749.329956 671.064758,750.851929 
	C669.029724,753.682678 667.374146,756.786255 665.260803,759.337463 
	C665.147095,759.201477 665.033447,759.065552 664.995667,758.172241 
	C665.081299,757.189392 665.103638,756.196167 665.263062,755.225403 
	C666.161133,749.754822 664.282776,745.786926 659.347595,743.013855 
	C655.070984,740.610840 651.919128,742.828491 648.793213,745.080933 
	C647.423340,746.068176 646.518066,747.700073 646.060547,748.249023 
	C643.311951,748.120605 640.800537,747.252747 639.479553,748.145752 
	C638.067932,749.099976 637.750122,751.704285 637.012207,753.610535 
	C636.593872,754.690979 636.290649,755.816040 636.002502,756.993835 
M488.020142,667.560852 
	C489.650604,667.716797 491.281952,667.864380 492.911407,668.030212 
	C505.898743,669.351379 518.872986,671.557251 531.876465,671.745605 
	C544.263733,671.925049 556.773438,670.627014 569.059998,668.824280 
	C581.294556,667.029175 593.437866,664.250732 605.406860,661.091309 
	C622.878967,656.479309 639.018738,648.546753 654.740356,639.728027 
	C671.820374,630.147339 687.349854,618.455688 701.411194,604.915649 
	C708.747742,597.851196 715.388794,590.041199 722.095459,582.351257 
	C732.964233,569.888977 741.637146,555.943848 749.290649,541.317505 
	C756.902954,526.770020 763.077515,511.691406 767.642212,495.895081 
	C773.266663,476.430786 775.950928,456.493561 776.789490,436.391266 
	C777.273987,424.775818 775.665710,413.073090 774.999268,401.409637 
	C774.191406,387.271362 770.999634,373.594818 767.033264,360.062836 
	C761.819641,342.275940 754.778564,325.282867 745.648499,309.120117 
	C737.169800,294.110565 727.485474,279.949768 715.714661,267.395020 
	C707.224731,258.339691 698.497498,249.308670 688.787659,241.645950 
	C676.924011,232.283524 664.314514,223.703857 651.321167,215.972977 
	C631.439087,204.143494 609.854797,196.164612 587.124573,191.665497 
	C575.692261,189.402649 564.168945,186.870697 552.591553,186.256577 
	C538.567017,185.512650 524.392944,186.060760 510.375397,187.189590 
	C498.795929,188.122070 487.186066,190.023834 475.879730,192.714813 
	C453.825592,197.963852 432.860779,206.204483 413.014282,217.358215 
	C396.371704,226.711319 381.307648,238.132843 367.515717,251.163055 
	C359.390350,258.839661 351.561981,267.037140 344.829163,275.930878 
	C335.603577,288.117371 326.833313,300.774139 319.165527,313.982635 
	C309.480316,330.666321 303.124786,348.966919 298.313416,367.591125 
	C294.498810,382.356842 291.272339,397.354736 291.918060,412.889008 
	C292.353668,423.367706 291.610229,433.897797 292.110260,444.370728 
	C292.615601,454.955719 292.982788,465.719574 295.212097,476.014954 
	C300.235992,499.216431 307.733398,521.622498 319.081268,542.702942 
	C328.640594,560.460938 339.675537,577.179871 353.499786,591.730530 
	C364.243652,603.039001 375.783783,613.815491 388.123779,623.332336 
	C408.577972,639.106995 431.452332,650.894531 456.079071,658.873047 
	C466.296600,662.183289 476.882538,664.356323 488.020142,667.560852 
M402.998627,738.278625 
	C403.185333,737.510254 403.340973,736.732788 403.563385,735.974854 
	C406.446320,726.150879 403.922699,721.426880 395.591309,720.742737 
	C395.720520,719.211121 395.849915,717.677063 396.066345,715.111450 
	C383.992310,721.535278 371.979858,724.862122 359.089417,723.962708 
	C359.424927,730.565857 361.548401,731.129333 374.000549,728.323059 
	C374.000549,730.034241 374.033417,731.689941 373.995331,733.344055 
	C373.671021,747.423950 373.250732,761.502747 373.104126,775.584412 
	C373.085510,777.373657 374.013397,780.202271 375.302399,780.787292 
	C379.562164,782.720337 386.882446,777.773438 386.893433,773.196411 
	C386.900787,770.131226 386.244873,767.069641 385.989868,763.997803 
	C384.947784,751.444275 383.945740,738.887512 382.939209,726.458557 
	C386.329254,724.894043 389.409332,723.472534 392.412445,722.086609 
	C391.896332,724.352966 391.446716,726.327637 390.997009,728.302307 
	C390.210266,731.756592 390.550598,736.883057 388.408661,738.326843 
	C383.528473,741.616272 386.310303,742.756470 388.675232,744.514771 
	C388.439606,746.546326 387.977722,748.451965 388.044098,750.339111 
	C388.258209,756.425293 388.785095,762.501282 388.954041,768.587830 
	C389.048431,771.987854 389.082153,775.116638 393.703308,774.993286 
	C397.808472,774.883667 399.967804,772.475586 399.995850,768.000916 
	C400.013611,765.168091 399.679993,762.285645 400.107483,759.518677 
	C400.418854,757.503418 401.716217,755.640564 402.574005,753.709717 
	C404.363403,758.925110 405.259155,763.541443 405.971313,768.185913 
	C406.371399,770.795288 407.327850,771.903809 410.306763,772.132019 
	C416.304962,772.591309 417.719757,767.703979 420.714600,764.258423 
	C421.100861,769.265259 423.965546,772.185120 428.626251,772.760010 
	C432.723419,773.265320 437.118256,773.420471 439.582092,768.900269 
	C443.246124,762.178345 446.841736,755.419189 450.466431,748.675842 
	C449.729645,748.159180 448.992828,747.642517 448.256042,747.125854 
	C446.176392,749.752075 443.916504,752.258057 442.063660,755.035583 
	C439.848145,758.356873 438.154419,762.033813 435.845734,765.280151 
	C435.235046,766.138855 433.194061,765.980347 431.809906,766.288940 
	C431.996338,765.184814 432.009583,764.014709 432.400055,762.988220 
	C433.866425,759.133850 435.820343,755.423584 436.876495,751.468445 
	C437.633148,748.634888 437.200592,745.199646 433.595612,744.344238 
	C429.974518,743.485046 426.182068,743.442993 423.858368,747.429749 
	C421.083221,752.191162 418.253754,756.920898 415.059448,762.320862 
	C414.808807,755.684265 416.628143,748.728882 410.245514,745.521973 
	C407.797791,744.292114 403.516296,746.712036 399.164948,747.667725 
	C400.343109,745.032166 401.659363,742.087646 402.998627,738.278625 
M461.005707,735.784668 
	C460.894806,749.249634 462.582764,762.868347 458.853668,776.341431 
	C456.998474,774.686523 456.068970,773.857361 455.139435,773.028198 
	C454.426666,774.145386 453.003662,775.376770 453.160858,776.354004 
	C453.423065,777.983887 454.387970,780.438904 455.597534,780.816956 
	C461.038513,782.517334 465.791870,780.436646 469.108398,775.523926 
	C473.455994,769.083801 475.328186,761.891602 475.177734,753.483521 
	C476.411194,754.437439 477.538116,754.853943 477.759644,755.556030 
	C478.963196,759.370972 479.810333,763.299072 481.031403,767.107666 
	C482.892883,772.914001 485.758148,777.938110 491.867340,780.395874 
	C497.285034,782.575439 501.772736,780.869324 501.715759,776.039368 
	C495.936859,777.213989 495.796051,773.696533 495.933258,769.360657 
	C496.215118,760.451294 493.298340,753.141907 484.935883,749.619202 
	C487.092133,748.396790 489.538940,747.254456 491.716125,745.727600 
	C497.362030,741.768311 498.111115,735.377136 498.466980,729.411865 
	C498.748444,724.693970 495.415253,721.272705 491.109406,718.948608 
	C487.441376,716.968811 485.025635,718.678162 482.459991,720.929199 
	C480.155060,722.951355 477.689026,724.789856 475.353943,726.661438 
	C473.663055,725.475403 472.016327,724.131287 470.199371,723.082092 
	C465.146301,720.164124 462.181885,721.887878 461.961517,727.606812 
	C461.868195,730.028992 461.353027,732.434998 461.005707,735.784668 
M499.378143,741.885132 
	C501.133423,742.567444 502.960999,743.928162 504.624573,743.750793 
	C506.468292,743.554138 508.462372,742.226074 509.755188,740.810181 
	C510.195709,740.327759 508.995361,737.118286 508.045319,736.836060 
	C505.645172,736.123047 502.889435,735.987000 500.435028,736.454285 
	C499.698486,736.594604 499.485229,739.483276 499.378143,741.885132 
z"/>
<path fill="#F7F6EA" opacity="1.000000" stroke="none" 
	d="
M487.660522,667.303711 
	C476.882538,664.356323 466.296600,662.183289 456.079071,658.873047 
	C431.452332,650.894531 408.577972,639.106995 388.123779,623.332336 
	C375.783783,613.815491 364.243652,603.039001 353.499786,591.730530 
	C339.675537,577.179871 328.640594,560.460938 319.081268,542.702942 
	C307.733398,521.622498 300.235992,499.216431 295.212097,476.014954 
	C292.982788,465.719574 292.615601,454.955719 292.110260,444.370728 
	C291.610229,433.897797 292.353668,423.367706 291.918060,412.889008 
	C291.272339,397.354736 294.498810,382.356842 298.313416,367.591125 
	C303.124786,348.966919 309.480316,330.666321 319.165527,313.982635 
	C326.833313,300.774139 335.603577,288.117371 344.829163,275.930878 
	C351.561981,267.037140 359.390350,258.839661 367.515717,251.163055 
	C381.307648,238.132843 396.371704,226.711319 413.014282,217.358215 
	C432.860779,206.204483 453.825592,197.963852 475.879730,192.714813 
	C487.186066,190.023834 498.795929,188.122070 510.375397,187.189590 
	C524.392944,186.060760 538.567017,185.512650 552.591553,186.256577 
	C564.168945,186.870697 575.692261,189.402649 587.124573,191.665497 
	C609.854797,196.164612 631.439087,204.143494 651.321167,215.972977 
	C664.314514,223.703857 676.924011,232.283524 688.787659,241.645950 
	C698.497498,249.308670 707.224731,258.339691 715.714661,267.395020 
	C727.485474,279.949768 737.169800,294.110565 745.648499,309.120117 
	C754.778564,325.282867 761.819641,342.275940 767.033264,360.062836 
	C770.999634,373.594818 774.191406,387.271362 774.999268,401.409637 
	C775.665710,413.073090 777.273987,424.775818 776.789490,436.391266 
	C775.950928,456.493561 773.266663,476.430786 767.642212,495.895081 
	C763.077515,511.691406 756.902954,526.770020 749.290649,541.317505 
	C741.637146,555.943848 732.964233,569.888977 722.095459,582.351257 
	C715.388794,590.041199 708.747742,597.851196 701.411194,604.915649 
	C687.349854,618.455688 671.820374,630.147339 654.740356,639.728027 
	C639.018738,648.546753 622.878967,656.479309 605.406860,661.091309 
	C593.437866,664.250732 581.294556,667.029175 569.059998,668.824280 
	C556.773438,670.627014 544.263733,671.925049 531.876465,671.745605 
	C518.872986,671.557251 505.898743,669.351379 492.911407,668.030212 
	C491.281952,667.864380 489.650604,667.716797 487.660522,667.303711 
M763.995239,410.183075 
	C763.655457,408.790680 763.221924,407.413635 762.990723,406.003418 
	C761.132263,394.667084 759.944702,383.176666 757.338074,372.016907 
	C752.951050,353.234680 745.616333,335.543030 736.304504,318.560638 
	C726.340576,300.389038 714.499207,283.658752 700.112122,268.859283 
	C692.479980,261.008362 683.662231,254.318863 675.492432,246.979660 
	C662.879395,235.648941 648.156189,227.367249 633.056702,220.349106 
	C618.472107,213.570236 602.921753,208.421021 587.317810,204.418747 
	C573.716614,200.930130 559.502563,199.413910 545.457825,198.216629 
	C535.972595,197.408035 526.247559,198.089462 516.744202,199.139572 
	C503.714966,200.579285 490.643646,202.320099 477.859619,205.148575 
	C454.619537,210.290466 432.953064,219.739243 413.019958,232.680420 
	C402.052887,239.800613 391.908051,248.192825 381.439606,256.074188 
	C368.392517,265.896912 357.987335,278.406067 348.502960,291.374786 
	C332.109894,313.790283 319.528503,338.345764 311.989075,365.283752 
	C306.848511,383.650513 303.837799,402.369659 303.080597,421.383606 
	C302.367188,439.298065 304.299835,457.011505 307.891968,474.627350 
	C311.869293,494.131958 318.077362,512.807068 327.022186,530.518494 
	C334.668274,545.658325 343.815094,559.801392 354.368347,573.233826 
	C365.824310,587.815247 378.995880,600.469604 393.500671,611.606628 
	C410.498413,624.657776 429.180511,635.057495 449.191498,643.134583 
	C471.775360,652.250366 495.241058,657.412170 519.345093,658.729248 
	C534.097656,659.535217 549.112244,658.588989 563.795532,656.736267 
	C577.619690,654.991821 591.408875,651.847595 604.776550,647.856140 
	C627.978210,640.928528 649.187927,629.514771 668.872498,615.495850 
	C686.054688,603.259033 701.270630,588.781555 714.270386,572.132568 
	C727.495667,555.194824 738.154480,536.726929 746.576660,516.922607 
	C754.377441,498.579559 759.459656,479.565186 761.998169,459.825317 
	C762.593933,455.193329 763.436035,450.593079 764.689087,445.340912 
	C764.792725,436.954529 764.979248,428.567963 764.956360,420.181915 
	C764.947998,417.129181 764.440613,414.077789 763.995239,410.183075 
z"/>
<path fill="#F7F6E9" opacity="1.000000" stroke="none" 
	d="
M668.399414,765.258362 
	C662.406494,769.142944 656.502625,773.284180 647.983765,771.714111 
	C647.983765,777.453186 647.985901,782.863403 647.983276,788.273560 
	C647.979797,795.611450 645.785583,798.516052 638.896912,800.602783 
	C635.494324,801.633484 633.721008,800.753723 634.000000,796.962708 
	C634.456543,790.759644 634.908447,784.556274 635.359924,778.384766 
	C629.712036,777.814331 627.480225,775.035522 626.950439,769.400696 
	C626.593628,765.605347 625.770996,761.853821 624.979248,756.992981 
	C621.330627,759.215820 617.770081,760.275818 616.130554,762.657959 
	C613.965942,765.803101 612.391846,769.947815 612.238586,773.730652 
	C612.056458,778.226074 608.824646,778.812256 606.290771,779.683167 
	C603.758301,780.553528 600.664185,780.223816 597.896240,779.841370 
	C595.584167,779.521851 594.444458,778.014160 595.257935,775.262756 
	C599.879761,759.631165 604.545593,744.006836 608.718811,728.253601 
	C609.484131,725.364685 609.449280,721.976318 612.562805,721.393799 
	C615.779114,720.791992 619.821899,720.792542 622.500305,722.305237 
	C624.751892,723.576843 626.255676,727.249390 626.877686,730.121704 
	C628.552979,737.857910 629.580139,745.734497 630.780640,753.044861 
	C632.505737,754.078186 634.262573,755.130554 635.615479,756.603455 
	C632.624207,756.552307 631.528259,757.524353 632.029480,760.199097 
	C632.412903,762.245422 632.572083,764.338074 633.032104,766.364563 
	C633.527161,768.545471 634.256653,770.673218 635.196045,773.894958 
	C635.789062,772.296570 635.970398,772.035217 635.970459,771.773926 
	C635.971619,766.822998 635.951416,761.872009 635.935669,756.921082 
	C636.290649,755.816040 636.593872,754.690979 637.012207,753.610535 
	C637.750122,751.704285 638.067932,749.099976 639.479553,748.145752 
	C640.800537,747.252747 643.311951,748.120605 646.060547,748.249023 
	C646.518066,747.700073 647.423340,746.068176 648.793213,745.080933 
	C651.919128,742.828491 655.070984,740.610840 659.347595,743.013855 
	C664.282776,745.786926 666.161133,749.754822 665.263062,755.225403 
	C665.103638,756.196167 665.081299,757.189392 664.678833,758.647705 
	C664.322021,759.658813 664.282104,760.194336 664.242188,760.729919 
	C664.681702,760.412048 665.121216,760.094177 665.560669,759.776306 
	C667.374146,756.786255 669.029724,753.682678 671.064758,750.851929 
	C672.158875,749.329956 673.743408,747.819946 675.431030,747.225464 
	C676.152161,746.971375 677.700989,749.066772 677.770447,749.127625 
	C679.339417,747.967346 681.431580,746.316040 683.626953,744.815735 
	C691.218506,739.627075 698.160767,742.912537 698.973877,752.092346 
	C699.148499,754.063843 699.011353,756.062866 698.694580,758.590820 
	C698.330078,759.667725 698.288879,760.203003 698.247681,760.738281 
	C698.688293,760.418152 699.129028,760.098022 699.569763,759.777893 
	C702.590332,755.784363 705.610840,751.790771 708.803894,747.569214 
	C710.604431,752.165466 706.464294,761.249939 700.531494,765.763123 
	C694.063049,770.683838 694.022949,771.207397 681.000000,772.429993 
	C681.000000,778.828247 681.041260,785.271179 680.987061,791.713318 
	C680.942871,796.957153 675.119629,802.099670 670.202637,800.758301 
	C669.086853,800.453796 668.085205,797.415161 668.105713,795.647400 
	C668.216064,786.091370 668.664429,776.539307 669.347473,766.393921 
	C669.741516,764.972473 669.784363,764.142944 669.880920,762.273682 
	C669.065491,763.916443 668.732483,764.587402 668.399414,765.258362 
M681.025085,759.950500 
	C681.025085,762.156494 681.025085,764.362549 681.025085,766.746277 
	C687.673523,763.561035 689.794495,757.382568 686.877502,750.344910 
	C686.198730,750.577332 685.107361,750.618530 684.876648,751.085144 
	C683.573181,753.721191 682.476135,756.459351 681.025085,759.950500 
M648.015442,758.086609 
	C648.015442,760.676819 648.015442,763.267029 648.015442,765.999329 
	C653.783203,764.296814 655.370422,759.059204 653.008484,749.013367 
	C651.132996,752.243286 649.676636,754.751465 648.015442,758.086609 
M621.037354,739.942688 
	C619.940247,744.498779 618.843201,749.054871 617.715149,753.739746 
	C620.289307,753.739746 622.032532,753.739746 624.611938,753.739746 
	C623.528442,748.665649 622.531921,743.998718 621.037354,739.942688 
z"/>
<path fill="#F7F6E9" opacity="1.000000" stroke="none" 
	d="
M402.987122,738.710876 
	C401.659363,742.087646 400.343109,745.032166 399.164948,747.667725 
	C403.516296,746.712036 407.797791,744.292114 410.245514,745.521973 
	C416.628143,748.728882 414.808807,755.684265 415.059448,762.320862 
	C418.253754,756.920898 421.083221,752.191162 423.858368,747.429749 
	C426.182068,743.442993 429.974518,743.485046 433.595612,744.344238 
	C437.200592,745.199646 437.633148,748.634888 436.876495,751.468445 
	C435.820343,755.423584 433.866425,759.133850 432.400055,762.988220 
	C432.009583,764.014709 431.996338,765.184814 431.809875,766.288940 
	C433.194061,765.980347 435.235046,766.138855 435.845734,765.280151 
	C438.154419,762.033813 439.848145,758.356873 442.063660,755.035583 
	C443.916504,752.258057 446.176392,749.752075 448.256042,747.125854 
	C448.992828,747.642517 449.729645,748.159180 450.466431,748.675842 
	C446.841736,755.419189 443.246124,762.178345 439.582092,768.900269 
	C437.118256,773.420471 432.723419,773.265320 428.626251,772.760010 
	C423.965546,772.185120 421.100861,769.265259 420.714600,764.258423 
	C417.719757,767.703979 416.304962,772.591309 410.306763,772.132019 
	C407.327850,771.903809 406.371399,770.795288 405.971313,768.185913 
	C405.259155,763.541443 404.363403,758.925110 402.574005,753.709717 
	C401.716217,755.640564 400.418854,757.503418 400.107483,759.518677 
	C399.679993,762.285645 400.013611,765.168091 399.995850,768.000916 
	C399.967804,772.475586 397.808472,774.883667 393.703308,774.993286 
	C389.082153,775.116638 389.048431,771.987854 388.954041,768.587830 
	C388.785095,762.501282 388.258209,756.425293 388.044098,750.339111 
	C387.977722,748.451965 388.439606,746.546326 388.675232,744.514771 
	C386.310303,742.756470 383.528473,741.616272 388.408661,738.326843 
	C390.550598,736.883057 390.210266,731.756592 390.997009,728.302307 
	C391.446716,726.327637 391.896332,724.352966 392.412445,722.086609 
	C389.409332,723.472534 386.329254,724.894043 382.939209,726.458557 
	C383.945740,738.887512 384.947784,751.444275 385.989868,763.997803 
	C386.244873,767.069641 386.900787,770.131226 386.893433,773.196411 
	C386.882446,777.773438 379.562164,782.720337 375.302399,780.787292 
	C374.013397,780.202271 373.085510,777.373657 373.104126,775.584412 
	C373.250732,761.502747 373.671021,747.423950 373.995331,733.344055 
	C374.033417,731.689941 374.000549,730.034241 374.000549,728.323059 
	C361.548401,731.129333 359.424927,730.565857 359.089417,723.962708 
	C371.979858,724.862122 383.992310,721.535278 396.066345,715.111450 
	C395.849915,717.677063 395.720520,719.211121 395.591309,720.742737 
	C403.922699,721.426880 406.446320,726.150879 403.563385,735.974854 
	C403.340973,736.732788 403.185333,737.510254 402.987122,738.710876 
z"/>
<path fill="#F7F6E9" opacity="1.000000" stroke="none" 
	d="
M461.017639,735.316528 
	C461.353027,732.434998 461.868195,730.028992 461.961517,727.606812 
	C462.181885,721.887878 465.146301,720.164124 470.199371,723.082092 
	C472.016327,724.131287 473.663055,725.475403 475.353943,726.661438 
	C477.689026,724.789856 480.155060,722.951355 482.459991,720.929199 
	C485.025635,718.678162 487.441376,716.968811 491.109406,718.948608 
	C495.415253,721.272705 498.748444,724.693970 498.466980,729.411865 
	C498.111115,735.377136 497.362030,741.768311 491.716125,745.727600 
	C489.538940,747.254456 487.092133,748.396790 484.935883,749.619202 
	C493.298340,753.141907 496.215118,760.451294 495.933258,769.360657 
	C495.796051,773.696533 495.936859,777.213989 501.715759,776.039368 
	C501.772736,780.869324 497.285034,782.575439 491.867340,780.395874 
	C485.758148,777.938110 482.892883,772.914001 481.031403,767.107666 
	C479.810333,763.299072 478.963196,759.370972 477.759644,755.556030 
	C477.538116,754.853943 476.411194,754.437439 475.177734,753.483521 
	C475.328186,761.891602 473.455994,769.083801 469.108398,775.523926 
	C465.791870,780.436646 461.038513,782.517334 455.597534,780.816956 
	C454.387970,780.438904 453.423065,777.983887 453.160858,776.354004 
	C453.003662,775.376770 454.426666,774.145386 455.139435,773.028198 
	C456.068970,773.857361 456.998474,774.686523 458.853668,776.341431 
	C462.582764,762.868347 460.894806,749.249634 461.017639,735.316528 
M485.073853,729.546570 
	C484.727173,728.407288 484.380493,727.268005 483.945892,725.839844 
	C476.621460,733.800842 474.574768,737.771545 476.678223,745.841187 
	C482.299683,742.359070 486.050568,735.764221 485.073853,729.546570 
z"/>
<path fill="#F7F6E9" opacity="1.000000" stroke="none" 
	d="
M538.243652,747.709595 
	C540.275818,746.565186 542.189087,745.055176 544.363464,744.347961 
	C549.871216,742.556763 553.714417,745.354858 552.824402,751.051514 
	C552.183167,755.156067 549.906738,759.002502 548.385193,762.973877 
	C548.013489,763.944031 547.742004,764.952454 547.424377,765.943298 
	C548.524353,765.964966 549.880554,766.400513 550.666077,765.914246 
	C551.938354,765.126526 553.149414,763.895325 553.834351,762.566772 
	C556.089111,758.193604 560.593445,754.539062 558.135376,748.529602 
	C557.696899,747.457581 559.353027,744.237732 559.934265,744.265442 
	C562.312317,744.379028 564.812744,745.050415 566.937744,746.153076 
	C568.180420,746.797913 568.799316,748.644897 569.709473,749.966614 
	C572.307007,747.970398 574.620361,745.176575 577.533325,744.232300 
	C580.604431,743.236755 584.856934,743.046753 584.285706,749.128174 
	C583.987793,749.257751 583.128784,749.950806 582.288086,749.929199 
	C580.631836,749.886841 577.960815,748.695435 577.514099,749.303894 
	C575.646301,751.848083 573.888977,754.746155 573.144958,757.773438 
	C572.219482,761.539246 572.754089,765.665588 571.814575,769.425476 
	C571.370483,771.202698 569.017761,773.653870 567.432495,773.728271 
	C564.989014,773.842896 561.243958,774.153809 560.952820,769.724243 
	C560.811218,767.570068 560.229675,765.444763 559.888062,763.534607 
	C557.295288,766.385193 555.225403,769.870239 552.166687,771.719971 
	C548.281433,774.069458 543.414978,773.952942 540.056091,770.401001 
	C536.028137,766.141724 535.048706,760.719116 536.475952,754.954590 
	C537.014343,752.780029 537.498535,750.592102 538.154053,748.028748 
	C538.300720,747.647278 538.243652,747.709656 538.243652,747.709595 
z"/>
<path fill="#F7F6E9" opacity="1.000000" stroke="none" 
	d="
M538.328369,747.615356 
	C536.237732,753.706238 534.046631,759.805237 532.032471,765.962097 
	C531.053711,768.953857 530.484741,772.070312 526.308411,772.015625 
	C522.638794,771.967529 519.958130,771.100281 519.765625,766.626465 
	C519.703308,765.178467 518.355347,763.785767 517.595215,762.367920 
	C513.008728,769.685181 512.162720,772.248840 505.031677,772.235352 
	C498.628723,772.223145 497.964844,767.399414 497.351654,763.991638 
	C496.479950,759.147156 497.246429,753.828491 498.289490,748.919922 
	C498.636536,747.286804 501.963409,745.303528 503.974152,745.251282 
	C506.610352,745.182617 508.361145,747.213257 508.096558,750.639771 
	C507.717316,755.551819 507.999878,760.514893 508.448242,765.569092 
	C512.452454,760.187378 517.238342,755.250549 515.043823,747.477844 
	C513.576477,742.280884 514.538025,741.009521 519.698914,742.218506 
	C522.067261,742.773315 524.670715,745.287842 525.766541,747.582703 
	C527.232117,750.651794 527.336609,754.370850 528.287537,759.118958 
	C530.779663,753.514771 532.707947,749.069458 534.747620,744.675781 
	C535.200989,743.699158 536.046692,742.904663 536.711731,742.026306 
	C537.087341,743.221191 537.510071,744.404114 537.815735,745.616638 
	C537.940308,746.110779 537.810913,746.668823 538.020386,747.453735 
	C538.243652,747.709656 538.300720,747.647278 538.328369,747.615356 
z"/>
<path fill="#F7F6E8" opacity="1.000000" stroke="none" 
	d="
M499.205200,741.499023 
	C499.485229,739.483276 499.698486,736.594604 500.435028,736.454285 
	C502.889435,735.987000 505.645172,736.123047 508.045319,736.836060 
	C508.995361,737.118286 510.195709,740.327759 509.755188,740.810181 
	C508.462372,742.226074 506.468292,743.554138 504.624573,743.750793 
	C502.960999,743.928162 501.133423,742.567444 499.205200,741.499023 
z"/>
<path fill="#000000" opacity="1.000000" stroke="none" 
	d="
M764.164795,445.978210 
	C763.436035,450.593079 762.593933,455.193329 761.998169,459.825317 
	C759.459656,479.565186 754.377441,498.579559 746.576660,516.922607 
	C738.154480,536.726929 727.495667,555.194824 714.270386,572.132568 
	C701.270630,588.781555 686.054688,603.259033 668.872498,615.495850 
	C649.187927,629.514771 627.978210,640.928528 604.776550,647.856140 
	C591.408875,651.847595 577.619690,654.991821 563.795532,656.736267 
	C549.112244,658.588989 534.097656,659.535217 519.345093,658.729248 
	C495.241058,657.412170 471.775360,652.250366 449.191498,643.134583 
	C429.180511,635.057495 410.498413,624.657776 393.500671,611.606628 
	C378.995880,600.469604 365.824310,587.815247 354.368347,573.233826 
	C343.815094,559.801392 334.668274,545.658325 327.022186,530.518494 
	C318.077362,512.807068 311.869293,494.131958 307.891968,474.627350 
	C304.299835,457.011505 302.367188,439.298065 303.080597,421.383606 
	C303.837799,402.369659 306.848511,383.650513 311.989075,365.283752 
	C319.528503,338.345764 332.109894,313.790283 348.502960,291.374786 
	C357.987335,278.406067 368.392517,265.896912 381.439606,256.074188 
	C391.908051,248.192825 402.052887,239.800613 413.019958,232.680420 
	C432.953064,219.739243 454.619537,210.290466 477.859619,205.148575 
	C490.643646,202.320099 503.714966,200.579285 516.744202,199.139572 
	C526.247559,198.089462 535.972595,197.408035 545.457825,198.216629 
	C559.502563,199.413910 573.716614,200.930130 587.317810,204.418747 
	C602.921753,208.421021 618.472107,213.570236 633.056702,220.349106 
	C648.156189,227.367249 662.879395,235.648941 675.492432,246.979660 
	C683.662231,254.318863 692.479980,261.008362 700.112122,268.859283 
	C714.499207,283.658752 726.340576,300.389038 736.304504,318.560638 
	C745.616333,335.543030 752.951050,353.234680 757.338074,372.016907 
	C759.944702,383.176666 761.132263,394.667084 762.990723,406.003418 
	C763.221924,407.413635 763.655457,408.790680 764.003296,411.065979 
	C764.062500,423.292023 764.113647,434.635101 764.164795,445.978210 
M666.981506,333.489899 
	C670.828186,336.139099 674.674866,338.788300 678.521545,341.437469 
	C678.922241,341.949982 681.567810,340.072754 683.627625,337.689240 
	C684.379944,336.818665 684.397949,334.113251 683.633972,333.318237 
	C676.019836,325.394745 668.276550,317.586487 660.335510,309.990509 
	C657.399780,307.182281 654.095337,306.903046 650.969238,310.420593 
	C647.905334,313.868103 644.483521,316.997406 640.805847,320.679840 
	C637.178711,316.927948 634.073608,313.206055 630.440674,310.101929 
	C626.824097,307.011749 626.274048,303.575439 627.583191,298.978363 
	C631.796204,303.234924 635.858398,307.148346 639.684692,311.280243 
	C641.793701,313.557709 643.432739,313.548187 645.349182,311.209442 
	C646.293762,310.056671 647.915588,309.260040 648.404480,307.985321 
	C648.959534,306.538269 649.317078,304.043854 648.509888,303.197357 
	C641.041138,295.365509 633.383179,287.707581 625.601990,280.183350 
	C622.458252,277.143402 619.235168,276.977081 615.842590,280.540375 
	C608.838257,287.897156 601.709106,295.158142 594.261902,302.059967 
	C590.655762,305.402069 592.381348,307.231476 594.990784,309.552795 
	C597.356995,311.657715 599.143127,315.270386 602.797302,310.840088 
	C606.306519,306.585510 610.281006,302.714691 614.411621,298.288940 
	C616.122192,304.542938 613.976562,307.973175 610.384338,311.252350 
	C604.730896,316.413025 599.677368,322.232086 594.010925,327.377045 
	C589.638062,331.347473 593.716370,332.904938 595.651367,335.167084 
	C597.740723,337.609741 599.643982,339.587311 602.740173,335.919373 
	C606.293945,331.709290 610.398499,327.964050 615.208008,323.052582 
	C615.208008,338.019501 615.208008,351.425415 615.208008,365.240479 
	C618.930847,365.240479 622.276978,365.240479 626.022156,365.240479 
	C625.329834,366.059723 625.084839,366.505554 624.711182,366.768341 
	C619.244690,370.612366 623.816895,372.794586 625.992676,375.628510 
	C628.935242,379.460999 630.999390,377.802612 633.451965,375.119141 
	C638.530029,369.562927 643.776733,364.160889 649.767639,357.836578 
	C650.305969,370.189972 650.319519,370.203552 643.949951,376.544128 
	C637.955688,382.511200 631.928650,388.445404 625.592102,394.714508 
	C627.740845,397.001953 629.746399,398.925049 631.498352,401.056549 
	C633.599915,403.613373 635.294067,403.528870 637.511536,401.074860 
	C641.250122,396.937469 645.260376,393.045502 649.436890,388.762665 
	C651.149475,396.414215 649.668640,401.869843 643.917786,406.855865 
	C635.677551,414.000092 628.305664,422.145844 620.049133,430.376312 
	C621.605042,431.594879 622.737915,432.327911 623.686951,433.250153 
	C630.385132,439.759583 628.649658,439.797882 635.316650,433.205872 
	C640.038879,428.536743 644.718384,423.824493 649.937317,418.611847 
	C650.104309,430.401825 650.109802,430.407318 643.476257,437.025238 
	C637.506409,442.981079 631.522827,448.923096 625.257935,455.157166 
	C627.679626,457.426086 629.794250,459.091858 631.513000,461.096954 
	C633.698364,463.646332 635.356201,463.458740 637.538574,461.046417 
	C641.273010,456.918518 645.261963,453.020935 650.026855,448.118286 
	C650.026855,474.556519 650.026855,499.596100 650.026855,524.780151 
	C654.167603,524.780151 657.903748,524.780151 662.044739,524.780151 
	C662.044739,499.531403 662.044739,474.498657 662.044739,450.716461 
	C666.914307,454.463867 672.251953,458.571472 677.093750,462.297546 
	C678.894165,460.562378 681.854919,457.708862 685.283936,454.403992 
	C679.495056,448.741669 674.018433,442.364319 667.514648,437.308258 
	C660.927612,432.187408 661.820923,425.998138 662.127014,420.871155 
	C668.632874,426.190704 675.660767,431.937073 681.974426,437.099457 
	C683.820923,435.324036 686.784973,432.474182 690.042297,429.342285 
	C682.580688,421.946289 675.339722,413.825592 667.093079,406.902893 
	C660.853210,401.664703 661.854065,395.754730 662.193481,390.795776 
	C666.885559,394.513947 672.080017,398.630219 677.274475,402.746521 
	C678.530823,402.245575 680.570984,400.467224 682.725159,398.839691 
	C685.797607,396.518494 685.364075,394.562439 682.697388,392.087128 
	C677.938904,387.670197 673.827942,382.487518 668.769653,378.478668 
	C662.251831,373.312988 660.673950,367.090240 662.185791,360.514160 
	C668.675293,366.011902 675.579346,371.860840 682.483398,377.709747 
	C683.208252,377.543335 684.938232,376.123322 686.741516,374.803406 
	C690.555969,372.011353 690.625061,369.619354 686.928467,366.268158 
	C680.518066,360.456665 675.039734,353.559692 668.348083,348.132019 
	C661.863159,342.871979 661.122803,336.706543 662.546082,328.042725 
	C664.252625,330.195709 665.359558,331.592224 666.981506,333.489899 
M601.052429,360.491730 
	C600.668640,359.798920 600.410400,358.986786 599.882263,358.431244 
	C592.352112,350.510742 584.797668,342.613281 577.223022,334.735229 
	C572.748413,330.081421 571.742432,325.943268 574.388794,321.143066 
	C579.111450,312.576843 584.073975,304.142792 588.790405,295.573242 
	C591.462463,290.718353 593.844482,285.703857 596.340820,280.793243 
	C592.418945,278.629272 588.996399,276.740753 585.577576,274.854340 
	C584.702698,276.571777 584.071228,277.874878 583.385132,279.148590 
	C576.594727,291.755096 569.566589,304.240509 563.082886,317.002594 
	C559.093323,324.855499 559.877319,333.112152 565.460571,339.790588 
	C573.380554,349.264252 582.135254,358.043274 590.596741,367.059540 
	C593.978577,370.663086 593.717834,377.623566 590.129883,380.979767 
	C584.560669,386.189209 579.154663,391.572693 573.643921,396.845245 
	C564.473633,405.619354 564.630554,421.957550 574.059875,429.857208 
	C583.565247,437.820557 591.902405,447.161163 601.097046,455.518036 
	C608.141113,461.920349 606.493835,467.720032 601.512390,473.074493 
	C593.798035,481.366455 593.683533,495.454742 601.286011,503.757629 
	C611.548096,514.965088 622.008118,525.993286 632.487305,536.999268 
	C641.976562,546.965637 651.609680,556.795044 661.163879,566.699707 
	C661.836792,567.397339 662.327759,568.269348 662.994873,568.973694 
	C667.603516,573.839600 672.236389,578.682495 675.657349,582.270020 
	C679.301331,579.500854 682.305725,577.217712 685.142334,575.062073 
	C682.973999,572.365540 681.275330,569.941895 679.268311,567.808411 
	C667.257202,555.040833 655.216064,542.300842 643.103882,529.629211 
	C633.134644,519.199524 623.088684,508.842377 613.008118,498.520050 
	C606.364197,491.716919 606.175598,486.087494 612.456238,479.067688 
	C620.140015,470.479645 619.734558,456.360931 611.790649,449.244629 
	C606.008423,444.064819 600.481445,438.600952 594.792969,433.315063 
	C591.783875,430.518921 588.697632,427.803986 585.602600,425.102448 
	C579.239075,419.548126 575.017578,411.843536 584.292358,404.096252 
	C589.132141,400.053558 593.215027,395.118286 597.808594,390.764252 
	C606.740051,382.298523 607.128052,367.968781 601.052429,360.491730 
M528.500671,293.000641 
	C521.433411,300.066864 514.645081,307.443573 507.221680,314.113373 
	C499.556885,321.000061 499.843781,336.698120 507.294312,343.824036 
	C515.684570,351.848785 514.399414,356.999634 507.021362,364.440155 
	C494.824402,376.740387 482.756104,389.180542 470.222229,401.130280 
	C461.101166,409.826324 462.647369,423.695404 469.886932,431.306610 
	C473.815033,435.436432 473.747009,442.384949 469.623901,445.962189 
	C465.271332,449.738495 461.026367,453.647919 456.874115,457.644379 
	C445.642609,468.454437 434.485107,479.341400 423.299072,490.198700 
	C422.940796,490.546448 422.598328,490.910706 422.236084,491.254181 
	C409.279388,503.539673 396.275208,515.776367 383.472870,528.220581 
	C382.672211,528.998840 383.051605,531.554688 383.612030,533.000549 
	C384.106232,534.275574 385.722595,535.072510 386.666016,536.225708 
	C388.595673,538.584534 390.134491,538.398376 392.335907,536.274963 
	C406.025146,523.070618 419.898987,510.057892 433.615021,496.881042 
	C445.697174,485.273834 457.650024,473.532043 469.672913,461.863007 
	C470.370422,461.186005 471.150513,460.580017 471.950165,460.024506 
	C483.359100,452.098724 491.138550,435.338531 478.690704,422.953186 
	C474.085358,418.370941 475.049408,413.490295 479.738770,408.797577 
	C491.982941,396.544647 504.076904,384.135834 516.536133,372.105438 
	C526.731018,362.261505 528.270020,346.751282 517.640747,336.750732 
	C511.494720,330.968231 510.995361,327.717041 517.772583,320.813538 
	C528.623718,309.760223 539.667236,298.895996 550.602417,287.924866 
	C556.549255,281.958496 556.676697,283.380737 550.548218,276.979218 
	C548.310730,274.642029 546.807739,274.484863 544.509338,276.922089 
	C539.484009,282.250946 534.186768,287.323395 528.500671,293.000641 
M443.999390,383.500671 
	C440.348694,379.848572 437.108307,375.617340 432.954926,372.674805 
	C426.045929,367.780090 426.510315,361.328369 427.349945,353.695831 
	C431.894440,358.318542 435.820374,362.595764 440.119110,366.458130 
	C441.036469,367.282318 443.501801,367.063782 444.901917,366.480499 
	C446.321503,365.889160 447.236298,364.171295 448.494843,363.089569 
	C450.709839,361.185730 450.240692,359.653412 448.322266,357.767670 
	C440.485443,350.064453 432.941376,342.048767 424.825867,334.657227 
	C423.368896,333.330261 418.683014,333.264648 417.259430,334.561432 
	C409.021484,342.065338 401.238464,350.079590 393.538666,358.147491 
	C392.714935,359.010620 393.256439,361.363281 393.504700,362.972504 
	C393.606323,363.631195 394.703918,364.082672 395.191132,364.744263 
	C397.966248,368.512909 400.496338,368.855988 403.711395,364.943939 
	C406.907959,361.054352 410.691376,357.647125 414.459656,353.779816 
	C416.349609,362.252808 414.505066,368.348907 408.102814,373.656128 
	C401.335968,379.265625 395.469574,385.968109 389.287628,392.269470 
	C388.316589,393.259277 386.846954,395.337433 387.156036,395.748535 
	C389.107483,398.344421 391.305206,400.869354 393.891388,402.782684 
	C394.444489,403.191895 397.155487,401.225281 398.484924,399.949432 
	C403.887726,394.764435 409.139709,389.422333 415.000732,383.587158 
	C415.000732,386.175659 414.819763,387.700775 415.033386,389.168457 
	C415.788574,394.356323 414.030945,398.235748 409.983185,401.664886 
	C405.550018,405.420502 401.655762,409.814758 397.549744,413.953552 
	C390.509247,421.050262 390.264709,419.766174 395.345459,424.859161 
	C400.163879,429.689178 399.088470,429.484009 405.879608,422.620941 
	C408.703644,419.766968 411.338074,416.725372 414.058746,413.769135 
	C414.458221,414.059723 414.857666,414.350311 415.257141,414.640900 
	C415.257141,436.374420 415.257141,458.107910 415.257141,479.678345 
	C419.370819,479.678345 423.109131,479.678345 427.273804,479.678345 
	C427.273804,457.690521 427.273804,436.021912 427.273804,413.639008 
	C431.703094,418.124054 435.701660,421.891541 439.353333,425.969635 
	C441.784332,428.684601 443.629852,428.509705 445.734283,425.823853 
	C446.448029,424.912964 447.295135,424.074890 448.199310,423.350952 
	C450.578705,421.445770 450.476501,419.810394 448.253296,417.687958 
	C442.954132,412.629028 438.314545,406.762024 432.552368,402.336090 
	C425.956757,397.269989 426.786255,391.043457 427.244415,383.592072 
	C433.444946,389.850250 439.122253,395.434601 444.612701,401.196991 
	C446.668854,403.354919 448.287659,403.722015 450.274353,401.292206 
	C451.217712,400.138428 452.314880,399.087158 453.454895,398.122406 
	C455.653809,396.261627 455.364899,394.669128 453.358643,392.802826 
	C450.312347,389.968994 447.443542,386.944397 443.999390,383.500671 
M460.000519,382.438171 
	C460.000519,384.875763 460.000519,387.313324 460.000519,389.725342 
	C464.280090,389.725342 468.017273,389.725342 472.164154,389.725342 
	C472.164154,369.441437 472.164154,349.427673 472.164154,328.442993 
	C476.900024,333.282684 480.810638,337.562653 485.093445,341.430542 
	C486.014954,342.262756 488.433044,342.030701 489.880737,341.509003 
	C491.150879,341.051270 491.929596,339.376373 493.096893,338.456879 
	C495.781342,336.342194 495.316803,334.627502 493.004547,332.440369 
	C488.046509,327.750519 483.735413,322.278229 478.381409,318.130615 
	C471.773285,313.011414 471.132568,306.726379 472.445465,298.633911 
	C478.432190,304.730743 484.083282,310.296722 489.494690,316.086761 
	C491.759979,318.510529 493.456024,318.622253 495.505646,316.045868 
	C496.431427,314.882141 498.025543,314.098236 498.567932,312.823517 
	C499.123199,311.518524 499.442291,309.166107 498.700256,308.399841 
	C489.435791,298.832855 480.044159,289.383728 470.485565,280.110107 
	C467.618500,277.328522 464.422607,276.840912 461.098816,280.275970 
	C452.415649,289.250031 443.645050,298.152466 434.590332,306.747437 
	C431.144928,310.017944 431.909088,311.893982 434.970978,314.636444 
	C437.711670,317.091217 439.539429,319.701691 443.215454,315.497589 
	C448.260284,309.728119 453.937836,304.511902 460.000519,298.396698 
	C460.000519,301.279358 459.768097,302.970520 460.043457,304.574554 
	C460.922516,309.695343 458.813171,313.237061 455.048340,316.593353 
	C449.587769,321.461426 444.756073,327.029816 439.368958,331.987457 
	C436.373260,334.744354 436.398346,336.779572 439.540436,339.113403 
	C440.334320,339.703003 441.050171,340.440125 441.668427,341.215851 
	C443.563263,343.593292 445.250916,343.560974 447.319031,341.263336 
	C451.129303,337.030151 455.140533,332.977875 460.000519,327.870209 
	C460.000519,346.883148 460.000519,364.169128 460.000519,382.438171 
M580.999390,535.501038 
	C573.707336,528.206177 566.456543,520.869568 559.111511,513.628479 
	C552.007202,506.624786 552.855103,500.142670 558.784668,493.784485 
	C564.821838,487.310944 565.013062,479.722473 563.289795,471.862183 
	C561.479004,463.602692 554.311890,459.428589 549.242004,453.739075 
	C546.333557,456.670013 543.808289,459.214874 541.283020,461.759735 
	C540.537476,462.459625 539.791992,463.159546 539.046509,463.859436 
	C542.132385,465.851196 545.543823,467.483124 548.231750,469.914764 
	C552.838257,474.082001 553.173584,481.965271 549.186340,486.562012 
	C539.513855,497.713013 539.642761,509.398346 547.824890,518.935974 
	C558.273315,531.115356 570.352600,541.895752 581.542358,553.092346 
	C584.499817,550.161743 587.162231,547.523499 590.160583,544.552368 
	C587.364868,541.792053 584.432251,538.896667 580.999390,535.501038 
M515.990540,439.496674 
	C507.876465,447.690887 507.874451,447.692993 516.191162,455.669586 
	C516.400452,455.870300 516.780029,455.893555 517.564514,456.170685 
	C522.648682,451.010315 528.206726,445.979584 533.034668,440.325500 
	C540.247253,431.878632 542.105713,422.598145 533.546082,412.955658 
	C530.834656,409.901215 531.813599,406.666229 534.605225,403.903351 
	C539.333801,399.223480 544.199890,394.666077 548.689880,389.765533 
	C555.077759,382.793610 558.158142,375.015015 554.058716,365.501190 
	C551.387207,359.301147 549.780090,358.750732 545.089233,363.374023 
	C543.791077,364.653442 542.343628,365.781281 541.067383,366.889557 
	C545.806946,374.810760 544.020752,376.647095 540.151245,380.351105 
	C535.826355,384.491089 531.797241,388.943634 527.418823,393.023376 
	C518.575439,401.263519 517.221130,412.732300 525.290649,421.936371 
	C527.737915,424.727753 528.113403,428.011475 524.658936,430.943542 
	C521.752258,433.410645 519.199768,436.295074 515.990540,439.496674 
M500.005066,548.366211 
	C502.381989,542.134094 500.499939,536.497437 496.902557,531.547241 
	C491.564270,524.201538 491.563141,520.911743 498.120575,514.395325 
	C503.869629,508.682251 509.671356,503.022186 514.918701,497.861115 
	C511.839966,494.658417 509.241089,491.954895 506.273590,488.867920 
	C500.081787,495.175018 493.609589,501.616394 487.309387,508.221771 
	C478.453033,517.507141 478.866089,528.922424 486.085449,537.637634 
	C490.389282,542.833191 490.204651,545.289490 485.313599,550.182861 
	C478.761902,556.737610 472.181000,563.263245 465.017517,570.393799 
	C467.217438,572.269470 469.216461,573.571655 470.688904,575.317932 
	C473.272766,578.382263 475.276001,578.812805 478.189148,575.481079 
	C483.620117,569.269653 489.591248,563.531433 495.045807,557.339172 
	C497.112213,554.993286 498.372192,551.937073 500.005066,548.366211 
z"/>
<path fill="#FFFFFF" opacity="1.000000" stroke="none" 
	d="
M764.426941,445.659546 
	C764.113647,434.635101 764.062500,423.292023 764.086121,411.487366 
	C764.440613,414.077789 764.947998,417.129181 764.956360,420.181915 
	C764.979248,428.567963 764.792725,436.954529 764.426941,445.659546 
z"/>
<path fill="#000000" opacity="1.000000" stroke="none" 
	d="
M681.166931,759.556641 
	C682.476135,756.459351 683.573181,753.721191 684.876648,751.085144 
	C685.107361,750.618530 686.198730,750.577332 686.877502,750.344910 
	C689.794495,757.382568 687.673523,763.561035 681.025085,766.746277 
	C681.025085,764.362549 681.025085,762.156494 681.166931,759.556641 
z"/>
<path fill="#000000" opacity="1.000000" stroke="none" 
	d="
M648.117859,757.673096 
	C649.676636,754.751465 651.132996,752.243286 653.008484,749.013367 
	C655.370422,759.059204 653.783203,764.296814 648.015442,765.999329 
	C648.015442,763.267029 648.015442,760.676819 648.117859,757.673096 
z"/>
<path fill="#000000" opacity="1.000000" stroke="none" 
	d="
M621.286377,739.637268 
	C622.531921,743.998718 623.528442,748.665649 624.611938,753.739746 
	C622.032532,753.739746 620.289307,753.739746 617.715149,753.739746 
	C618.843201,749.054871 619.940247,744.498779 621.286377,739.637268 
z"/>
<path fill="#000000" opacity="1.000000" stroke="none" 
	d="
M635.969116,756.957458 
	C635.951416,761.872009 635.971619,766.822998 635.970459,771.773926 
	C635.970398,772.035217 635.789062,772.296570 635.196045,773.894958 
	C634.256653,770.673218 633.527161,768.545471 633.032104,766.364563 
	C632.572083,764.338074 632.412903,762.245422 632.029480,760.199097 
	C631.528259,757.524353 632.624207,756.552307 635.643311,757.042358 
	C636.075073,757.060791 636.002502,756.993835 635.969116,756.957458 
z"/>
<path fill="#000000" opacity="1.000000" stroke="none" 
	d="
M668.558350,765.465088 
	C668.732483,764.587402 669.065491,763.916443 669.880920,762.273682 
	C669.784363,764.142944 669.741516,764.972473 669.383057,765.930115 
	C668.950745,765.929443 668.833984,765.800659 668.558350,765.465088 
z"/>
<path fill="#000000" opacity="1.000000" stroke="none" 
	d="
M665.410767,759.556885 
	C665.121216,760.094177 664.681702,760.412048 664.242188,760.729919 
	C664.282104,760.194336 664.322021,759.658813 664.640869,759.026489 
	C665.033447,759.065552 665.147095,759.201477 665.410767,759.556885 
z"/>
<path fill="#000000" opacity="1.000000" stroke="none" 
	d="
M699.421021,759.560791 
	C699.129028,760.098022 698.688293,760.418152 698.247681,760.738281 
	C698.288879,760.203003 698.330078,759.667725 698.651978,759.036987 
	C699.045898,759.075623 699.159058,759.209656 699.421021,759.560791 
z"/>
<path fill="#000000" opacity="1.000000" stroke="none" 
	d="
M485.350952,729.825989 
	C486.050568,735.764221 482.299683,742.359070 476.678223,745.841187 
	C474.574768,737.771545 476.621460,733.800842 483.945892,725.839844 
	C484.380493,727.268005 484.727173,728.407288 485.350952,729.825989 
z"/>
<path fill="#F7F6EA" opacity="1.000000" stroke="none" 
	d="
M666.723999,333.239319 
	C665.359558,331.592224 664.252625,330.195709 662.546082,328.042725 
	C661.122803,336.706543 661.863159,342.871979 668.348083,348.132019 
	C675.039734,353.559692 680.518066,360.456665 686.928467,366.268158 
	C690.625061,369.619354 690.555969,372.011353 686.741516,374.803406 
	C684.938232,376.123322 683.208252,377.543335 682.483398,377.709747 
	C675.579346,371.860840 668.675293,366.011902 662.185791,360.514160 
	C660.673950,367.090240 662.251831,373.312988 668.769653,378.478668 
	C673.827942,382.487518 677.938904,387.670197 682.697388,392.087128 
	C685.364075,394.562439 685.797607,396.518494 682.725159,398.839691 
	C680.570984,400.467224 678.530823,402.245575 677.274475,402.746521 
	C672.080017,398.630219 666.885559,394.513947 662.193481,390.795776 
	C661.854065,395.754730 660.853210,401.664703 667.093079,406.902893 
	C675.339722,413.825592 682.580688,421.946289 690.042297,429.342285 
	C686.784973,432.474182 683.820923,435.324036 681.974426,437.099457 
	C675.660767,431.937073 668.632874,426.190704 662.127014,420.871155 
	C661.820923,425.998138 660.927612,432.187408 667.514648,437.308258 
	C674.018433,442.364319 679.495056,448.741669 685.283936,454.403992 
	C681.854919,457.708862 678.894165,460.562378 677.093750,462.297546 
	C672.251953,458.571472 666.914307,454.463867 662.044739,450.716461 
	C662.044739,474.498657 662.044739,499.531403 662.044739,524.780151 
	C657.903748,524.780151 654.167603,524.780151 650.026855,524.780151 
	C650.026855,499.596100 650.026855,474.556519 650.026855,448.118286 
	C645.261963,453.020935 641.273010,456.918518 637.538574,461.046417 
	C635.356201,463.458740 633.698364,463.646332 631.513000,461.096954 
	C629.794250,459.091858 627.679626,457.426086 625.257935,455.157166 
	C631.522827,448.923096 637.506409,442.981079 643.476257,437.025238 
	C650.109802,430.407318 650.104309,430.401825 649.937317,418.611847 
	C644.718384,423.824493 640.038879,428.536743 635.316650,433.205872 
	C628.649658,439.797882 630.385132,439.759583 623.686951,433.250153 
	C622.737915,432.327911 621.605042,431.594879 620.049133,430.376312 
	C628.305664,422.145844 635.677551,414.000092 643.917786,406.855865 
	C649.668640,401.869843 651.149475,396.414215 649.436890,388.762665 
	C645.260376,393.045502 641.250122,396.937469 637.511536,401.074860 
	C635.294067,403.528870 633.599915,403.613373 631.498352,401.056549 
	C629.746399,398.925049 627.740845,397.001953 625.592102,394.714508 
	C631.928650,388.445404 637.955688,382.511200 643.949951,376.544128 
	C650.319519,370.203552 650.305969,370.189972 649.767639,357.836578 
	C643.776733,364.160889 638.530029,369.562927 633.451965,375.119141 
	C630.999390,377.802612 628.935242,379.460999 625.992676,375.628510 
	C623.816895,372.794586 619.244690,370.612366 624.711182,366.768341 
	C625.084839,366.505554 625.329834,366.059723 626.022156,365.240479 
	C622.276978,365.240479 618.930847,365.240479 615.208008,365.240479 
	C615.208008,351.425415 615.208008,338.019501 615.208008,323.052582 
	C610.398499,327.964050 606.293945,331.709290 602.740173,335.919373 
	C599.643982,339.587311 597.740723,337.609741 595.651367,335.167084 
	C593.716370,332.904938 589.638062,331.347473 594.010925,327.377045 
	C599.677368,322.232086 604.730896,316.413025 610.384338,311.252350 
	C613.976562,307.973175 616.122192,304.542938 614.411621,298.288940 
	C610.281006,302.714691 606.306519,306.585510 602.797302,310.840088 
	C599.143127,315.270386 597.356995,311.657715 594.990784,309.552795 
	C592.381348,307.231476 590.655762,305.402069 594.261902,302.059967 
	C601.709106,295.158142 608.838257,287.897156 615.842590,280.540375 
	C619.235168,276.977081 622.458252,277.143402 625.601990,280.183350 
	C633.383179,287.707581 641.041138,295.365509 648.509888,303.197357 
	C649.317078,304.043854 648.959534,306.538269 648.404480,307.985321 
	C647.915588,309.260040 646.293762,310.056671 645.349182,311.209442 
	C643.432739,313.548187 641.793701,313.557709 639.684692,311.280243 
	C635.858398,307.148346 631.796204,303.234924 627.583191,298.978363 
	C626.274048,303.575439 626.824097,307.011749 630.440674,310.101929 
	C634.073608,313.206055 637.178711,316.927948 640.805847,320.679840 
	C644.483521,316.997406 647.905334,313.868103 650.969238,310.420593 
	C654.095337,306.903046 657.399780,307.182281 660.335510,309.990509 
	C668.276550,317.586487 676.019836,325.394745 683.633972,333.318237 
	C684.397949,334.113251 684.379944,336.818665 683.627625,337.689240 
	C681.567810,340.072754 678.922241,341.949982 678.521545,341.437469 
	C674.674866,338.788300 670.828186,336.139099 666.723999,333.239319 
M639.500366,352.000153 
	C641.383972,350.114929 643.025452,347.868958 645.196350,346.411621 
	C651.940857,341.884064 649.749939,335.473938 649.878052,328.555084 
	C646.453125,332.020081 643.772278,334.753632 641.068176,337.463989 
	C634.678223,343.868713 634.676270,343.861511 628.000977,337.611023 
	C627.851440,337.471008 627.456116,337.593414 627.323975,337.593414 
	C627.323975,346.288574 627.323975,354.963409 627.323975,363.890747 
	C627.896790,363.446747 628.161621,363.282166 628.377319,363.068054 
	C631.921936,359.549103 635.460449,356.024017 639.500366,352.000153 
M629.938293,326.405090 
	C629.135559,325.683655 628.332886,324.962189 626.999207,323.763489 
	C626.999207,326.239960 626.999207,328.007874 626.999207,329.775787 
	C626.999207,330.696350 626.999207,331.616882 626.999207,332.537445 
	C627.929321,330.418671 633.493164,331.038452 629.938293,326.405090 
z"/>
<path fill="#F7F6EA" opacity="1.000000" stroke="none" 
	d="
M601.312744,360.769196 
	C607.128052,367.968781 606.740051,382.298523 597.808594,390.764252 
	C593.215027,395.118286 589.132141,400.053558 584.292358,404.096252 
	C575.017578,411.843536 579.239075,419.548126 585.602600,425.102448 
	C588.697632,427.803986 591.783875,430.518921 594.792969,433.315063 
	C600.481445,438.600952 606.008423,444.064819 611.790649,449.244629 
	C619.734558,456.360931 620.140015,470.479645 612.456238,479.067688 
	C606.175598,486.087494 606.364197,491.716919 613.008118,498.520050 
	C623.088684,508.842377 633.134644,519.199524 643.103882,529.629211 
	C655.216064,542.300842 667.257202,555.040833 679.268311,567.808411 
	C681.275330,569.941895 682.973999,572.365540 685.142334,575.062073 
	C682.305725,577.217712 679.301331,579.500854 675.657349,582.270020 
	C672.236389,578.682495 667.603516,573.839600 662.994873,568.973694 
	C662.327759,568.269348 661.836792,567.397339 661.163879,566.699707 
	C651.609680,556.795044 641.976562,546.965637 632.487305,536.999268 
	C622.008118,525.993286 611.548096,514.965088 601.286011,503.757629 
	C593.683533,495.454742 593.798035,481.366455 601.512390,473.074493 
	C606.493835,467.720032 608.141113,461.920349 601.097046,455.518036 
	C591.902405,447.161163 583.565247,437.820557 574.059875,429.857208 
	C564.630554,421.957550 564.473633,405.619354 573.643921,396.845245 
	C579.154663,391.572693 584.560669,386.189209 590.129883,380.979767 
	C593.717834,377.623566 593.978577,370.663086 590.596741,367.059540 
	C582.135254,358.043274 573.380554,349.264252 565.460571,339.790588 
	C559.877319,333.112152 559.093323,324.855499 563.082886,317.002594 
	C569.566589,304.240509 576.594727,291.755096 583.385132,279.148590 
	C584.071228,277.874878 584.702698,276.571777 585.577576,274.854340 
	C588.996399,276.740753 592.418945,278.629272 596.340820,280.793243 
	C593.844482,285.703857 591.462463,290.718353 588.790405,295.573242 
	C584.073975,304.142792 579.111450,312.576843 574.388794,321.143066 
	C571.742432,325.943268 572.748413,330.081421 577.223022,334.735229 
	C584.797668,342.613281 592.352112,350.510742 599.882263,358.431244 
	C600.410400,358.986786 600.668640,359.798920 601.312744,360.769196 
z"/>
<path fill="#F7F6EA" opacity="1.000000" stroke="none" 
	d="
M528.750610,292.750610 
	C534.186768,287.323395 539.484009,282.250946 544.509338,276.922089 
	C546.807739,274.484863 548.310730,274.642029 550.548218,276.979218 
	C556.676697,283.380737 556.549255,281.958496 550.602417,287.924866 
	C539.667236,298.895996 528.623718,309.760223 517.772583,320.813538 
	C510.995361,327.717041 511.494720,330.968231 517.640747,336.750732 
	C528.270020,346.751282 526.731018,362.261505 516.536133,372.105438 
	C504.076904,384.135834 491.982941,396.544647 479.738770,408.797577 
	C475.049408,413.490295 474.085358,418.370941 478.690704,422.953186 
	C491.138550,435.338531 483.359100,452.098724 471.950165,460.024506 
	C471.150513,460.580017 470.370422,461.186005 469.672913,461.863007 
	C457.650024,473.532043 445.697174,485.273834 433.615021,496.881042 
	C419.898987,510.057892 406.025146,523.070618 392.335907,536.274963 
	C390.134491,538.398376 388.595673,538.584534 386.666016,536.225708 
	C385.722595,535.072510 384.106232,534.275574 383.612030,533.000549 
	C383.051605,531.554688 382.672211,528.998840 383.472870,528.220581 
	C396.275208,515.776367 409.279388,503.539673 422.236084,491.254181 
	C422.598328,490.910706 422.940796,490.546448 423.299072,490.198700 
	C434.485107,479.341400 445.642609,468.454437 456.874115,457.644379 
	C461.026367,453.647919 465.271332,449.738495 469.623901,445.962189 
	C473.747009,442.384949 473.815033,435.436432 469.886932,431.306610 
	C462.647369,423.695404 461.101166,409.826324 470.222229,401.130280 
	C482.756104,389.180542 494.824402,376.740387 507.021362,364.440155 
	C514.399414,356.999634 515.684570,351.848785 507.294312,343.824036 
	C499.843781,336.698120 499.556885,321.000061 507.221680,314.113373 
	C514.645081,307.443573 521.433411,300.066864 528.750610,292.750610 
z"/>
<path fill="#F7F6EA" opacity="1.000000" stroke="none" 
	d="
M444.249390,383.750732 
	C447.443542,386.944397 450.312347,389.968994 453.358643,392.802826 
	C455.364899,394.669128 455.653809,396.261627 453.454895,398.122406 
	C452.314880,399.087158 451.217712,400.138428 450.274353,401.292206 
	C448.287659,403.722015 446.668854,403.354919 444.612701,401.196991 
	C439.122253,395.434601 433.444946,389.850250 427.244415,383.592072 
	C426.786255,391.043457 425.956757,397.269989 432.552368,402.336090 
	C438.314545,406.762024 442.954132,412.629028 448.253296,417.687958 
	C450.476501,419.810394 450.578705,421.445770 448.199310,423.350952 
	C447.295135,424.074890 446.448029,424.912964 445.734283,425.823853 
	C443.629852,428.509705 441.784332,428.684601 439.353333,425.969635 
	C435.701660,421.891541 431.703094,418.124054 427.273804,413.639008 
	C427.273804,436.021912 427.273804,457.690521 427.273804,479.678345 
	C423.109131,479.678345 419.370819,479.678345 415.257141,479.678345 
	C415.257141,458.107910 415.257141,436.374420 415.257141,414.640900 
	C414.857666,414.350311 414.458221,414.059723 414.058746,413.769135 
	C411.338074,416.725372 408.703644,419.766968 405.879608,422.620941 
	C399.088470,429.484009 400.163879,429.689178 395.345459,424.859161 
	C390.264709,419.766174 390.509247,421.050262 397.549744,413.953552 
	C401.655762,409.814758 405.550018,405.420502 409.983185,401.664886 
	C414.030945,398.235748 415.788574,394.356323 415.033386,389.168457 
	C414.819763,387.700775 415.000732,386.175659 415.000732,383.587158 
	C409.139709,389.422333 403.887726,394.764435 398.484924,399.949432 
	C397.155487,401.225281 394.444489,403.191895 393.891388,402.782684 
	C391.305206,400.869354 389.107483,398.344421 387.156036,395.748535 
	C386.846954,395.337433 388.316589,393.259277 389.287628,392.269470 
	C395.469574,385.968109 401.335968,379.265625 408.102814,373.656128 
	C414.505066,368.348907 416.349609,362.252808 414.459656,353.779816 
	C410.691376,357.647125 406.907959,361.054352 403.711395,364.943939 
	C400.496338,368.855988 397.966248,368.512909 395.191132,364.744263 
	C394.703918,364.082672 393.606323,363.631195 393.504700,362.972504 
	C393.256439,361.363281 392.714935,359.010620 393.538666,358.147491 
	C401.238464,350.079590 409.021484,342.065338 417.259430,334.561432 
	C418.683014,333.264648 423.368896,333.330261 424.825867,334.657227 
	C432.941376,342.048767 440.485443,350.064453 448.322266,357.767670 
	C450.240692,359.653412 450.709839,361.185730 448.494843,363.089569 
	C447.236298,364.171295 446.321503,365.889160 444.901917,366.480499 
	C443.501801,367.063782 441.036469,367.282318 440.119110,366.458130 
	C435.820374,362.595764 431.894440,358.318542 427.349945,353.695831 
	C426.510315,361.328369 426.045929,367.780090 432.954926,372.674805 
	C437.108307,375.617340 440.348694,379.848572 444.249390,383.750732 
z"/>
<path fill="#F7F6EA" opacity="1.000000" stroke="none" 
	d="
M460.000519,381.946625 
	C460.000519,364.169128 460.000519,346.883148 460.000519,327.870209 
	C455.140533,332.977875 451.129303,337.030151 447.319031,341.263336 
	C445.250916,343.560974 443.563263,343.593292 441.668427,341.215851 
	C441.050171,340.440125 440.334320,339.703003 439.540436,339.113403 
	C436.398346,336.779572 436.373260,334.744354 439.368958,331.987457 
	C444.756073,327.029816 449.587769,321.461426 455.048340,316.593353 
	C458.813171,313.237061 460.922516,309.695343 460.043457,304.574554 
	C459.768097,302.970520 460.000519,301.279358 460.000519,298.396698 
	C453.937836,304.511902 448.260284,309.728119 443.215454,315.497589 
	C439.539429,319.701691 437.711670,317.091217 434.970978,314.636444 
	C431.909088,311.893982 431.144928,310.017944 434.590332,306.747437 
	C443.645050,298.152466 452.415649,289.250031 461.098816,280.275970 
	C464.422607,276.840912 467.618500,277.328522 470.485565,280.110107 
	C480.044159,289.383728 489.435791,298.832855 498.700256,308.399841 
	C499.442291,309.166107 499.123199,311.518524 498.567932,312.823517 
	C498.025543,314.098236 496.431427,314.882141 495.505646,316.045868 
	C493.456024,318.622253 491.759979,318.510529 489.494690,316.086761 
	C484.083282,310.296722 478.432190,304.730743 472.445465,298.633911 
	C471.132568,306.726379 471.773285,313.011414 478.381409,318.130615 
	C483.735413,322.278229 488.046509,327.750519 493.004547,332.440369 
	C495.316803,334.627502 495.781342,336.342194 493.096893,338.456879 
	C491.929596,339.376373 491.150879,341.051270 489.880737,341.509003 
	C488.433044,342.030701 486.014954,342.262756 485.093445,341.430542 
	C480.810638,337.562653 476.900024,333.282684 472.164154,328.442993 
	C472.164154,349.427673 472.164154,369.441437 472.164154,389.725342 
	C468.017273,389.725342 464.280090,389.725342 460.000519,389.725342 
	C460.000519,387.313324 460.000519,384.875763 460.000519,381.946625 
z"/>
<path fill="#F7F6EA" opacity="1.000000" stroke="none" 
	d="
M581.249512,535.751099 
	C584.432251,538.896667 587.364868,541.792053 590.160583,544.552368 
	C587.162231,547.523499 584.499817,550.161743 581.542358,553.092346 
	C570.352600,541.895752 558.273315,531.115356 547.824890,518.935974 
	C539.642761,509.398346 539.513855,497.713013 549.186340,486.562012 
	C553.173584,481.965271 552.838257,474.082001 548.231750,469.914764 
	C545.543823,467.483124 542.132385,465.851196 539.046509,463.859436 
	C539.791992,463.159546 540.537476,462.459625 541.283020,461.759735 
	C543.808289,459.214874 546.333557,456.670013 549.242004,453.739075 
	C554.311890,459.428589 561.479004,463.602692 563.289795,471.862183 
	C565.013062,479.722473 564.821838,487.310944 558.784668,493.784485 
	C552.855103,500.142670 552.007202,506.624786 559.111511,513.628479 
	C566.456543,520.869568 573.707336,528.206177 581.249512,535.751099 
z"/>
<path fill="#F8F7EA" opacity="1.000000" stroke="none" 
	d="
M516.240540,439.245728 
	C519.199768,436.295074 521.752258,433.410645 524.658936,430.943542 
	C528.113403,428.011475 527.737915,424.727753 525.290649,421.936371 
	C517.221130,412.732300 518.575439,401.263519 527.418823,393.023376 
	C531.797241,388.943634 535.826355,384.491089 540.151245,380.351105 
	C544.020752,376.647095 545.806946,374.810760 541.067383,366.889557 
	C542.343628,365.781281 543.791077,364.653442 545.089233,363.374023 
	C549.780090,358.750732 551.387207,359.301147 554.058716,365.501190 
	C558.158142,375.015015 555.077759,382.793610 548.689880,389.765533 
	C544.199890,394.666077 539.333801,399.223480 534.605225,403.903351 
	C531.813599,406.666229 530.834656,409.901215 533.546082,412.955658 
	C542.105713,422.598145 540.247253,431.878632 533.034668,440.325500 
	C528.206726,445.979584 522.648682,451.010315 517.564514,456.170685 
	C516.780029,455.893555 516.400452,455.870300 516.191162,455.669586 
	C507.874451,447.692993 507.876465,447.690887 516.240540,439.245728 
z"/>
<path fill="#F7F6EA" opacity="1.000000" stroke="none" 
	d="
M500.002411,548.785400 
	C498.372192,551.937073 497.112213,554.993286 495.045807,557.339172 
	C489.591248,563.531433 483.620117,569.269653 478.189148,575.481079 
	C475.276001,578.812805 473.272766,578.382263 470.688904,575.317932 
	C469.216461,573.571655 467.217438,572.269470 465.017517,570.393799 
	C472.181000,563.263245 478.761902,556.737610 485.313599,550.182861 
	C490.204651,545.289490 490.389282,542.833191 486.085449,537.637634 
	C478.866089,528.922424 478.453033,517.507141 487.309387,508.221771 
	C493.609589,501.616394 500.081787,495.175018 506.273590,488.867920 
	C509.241089,491.954895 511.839966,494.658417 514.918701,497.861115 
	C509.671356,503.022186 503.869629,508.682251 498.120575,514.395325 
	C491.563141,520.911743 491.564270,524.201538 496.902557,531.547241 
	C500.499939,536.497437 502.381989,542.134094 500.002411,548.785400 
z"/>
<path fill="#000000" opacity="1.000000" stroke="none" 
	d="
M639.250305,352.250183 
	C635.460449,356.024017 631.921936,359.549103 628.377319,363.068054 
	C628.161621,363.282166 627.896790,363.446747 627.323975,363.890747 
	C627.323975,354.963409 627.323975,346.288574 627.323975,337.593414 
	C627.456116,337.593414 627.851440,337.471008 628.000977,337.611023 
	C634.676270,343.861511 634.678223,343.868713 641.068176,337.463989 
	C643.772278,334.753632 646.453125,332.020081 649.878052,328.555084 
	C649.749939,335.473938 651.940857,341.884064 645.196350,346.411621 
	C643.025452,347.868958 641.383972,350.114929 639.250305,352.250183 
z"/>
<path fill="#000000" opacity="1.000000" stroke="none" 
	d="
M630.179443,326.675018 
	C633.493164,331.038452 627.929321,330.418671 626.999207,332.537445 
	C626.999207,331.616882 626.999207,330.696350 626.999207,329.775787 
	C626.999207,328.007874 626.999207,326.239960 626.999207,323.763489 
	C628.332886,324.962189 629.135559,325.683655 630.179443,326.675018 
z"/>
</svg>